# Blender v2.78 (sub 0) OBJ File: 'Esqueleto.blend'
# www.blender.org
mtllib Corpo.mtl
o Corpo.001_Cube.003
v 0.052371 0.682317 -0.284624
v -0.009864 0.670835 -0.147106
v 0.058711 0.556881 -0.292228
v -0.003524 0.545398 -0.154711
v -0.204669 0.676508 -0.403100
v -0.307999 0.548593 -0.461255
v -0.502920 0.512880 -0.034681
v -0.399589 0.640795 0.023474
v -0.119649 0.521478 0.142483
v -0.125990 0.646979 0.149583
v -0.071163 0.530396 0.036349
v -0.077503 0.655833 0.043954
v -0.219087 0.666106 -0.243543
v -0.237254 0.540116 -0.262443
v -0.323819 0.524686 -0.080106
v -0.305652 0.650677 -0.061206
v 0.072731 0.280345 -0.308974
v 0.010496 0.268862 -0.171456
v 0.065871 0.416066 -0.300746
v 0.003636 0.404583 -0.163228
v -0.132128 0.275714 -0.403399
v -0.248659 0.408957 -0.445721
v -0.443580 0.373244 -0.019147
v -0.327049 0.240001 0.023175
v -0.160366 0.379645 0.111393
v -0.153506 0.243924 0.103165
v -0.111879 0.388500 0.005764
v -0.105019 0.252778 -0.002463
v -0.146547 0.265313 -0.243842
v -0.177914 0.400480 -0.246910
v -0.264479 0.385051 -0.064573
v -0.233112 0.249883 -0.061505
v 0.022490 0.030729 -0.185913
v 0.084725 0.042211 -0.323430
v 0.037568 0.975177 -0.266869
v -0.024667 0.963694 -0.129352
v 0.193144 0.034586 -0.107254
v 0.256848 0.046101 -0.244094
v 0.209692 0.979067 -0.187533
v 0.145987 0.967551 -0.050693
v 0.112484 -0.063045 -0.152016
v 0.175454 -0.051546 -0.289195
v 0.056001 1.054447 -0.084269
v 0.118970 1.065946 -0.221448
v 0.038508 0.922958 -0.269292
v -0.022047 0.911867 -0.132494
v 0.046528 0.797913 -0.277616
v -0.015707 0.786431 -0.140098
v -0.030566 0.921750 -0.302621
v -0.133894 0.793836 -0.360777
v -0.328814 0.758123 0.065797
v -0.225484 0.886038 0.123952
v -0.092701 0.763459 0.174628
v -0.099041 0.888895 0.182232
v -0.044214 0.772313 0.068999
v -0.050554 0.897750 0.076603
v -0.044981 0.911349 -0.143065
v -0.063148 0.785359 -0.161965
v -0.149713 0.769929 0.020371
v -0.131546 0.895919 0.039272
v 0.256317 0.260945 0.164086
v 0.273964 0.397220 0.183610
v 0.355797 0.412543 -0.000908
v 0.338150 0.276267 -0.020432
v 0.128225 0.258050 0.105045
v 0.121365 0.393771 0.113273
v 0.079738 0.249195 0.210674
v 0.072878 0.384917 0.218902
v 0.253281 0.253118 0.290664
v 0.356091 0.391317 0.349443
v 0.552482 0.427064 -0.076454
v 0.449671 0.288864 -0.135232
v 0.174248 0.408439 -0.084589
v 0.237952 0.419955 -0.221429
v 0.181108 0.272718 -0.092817
v 0.244812 0.284234 -0.229657
v 0.288125 0.664097 0.212482
v 0.318972 0.539214 0.216173
v 0.400806 0.554537 0.031655
v 0.369958 0.679419 0.027964
v 0.059976 0.658940 0.107322
v 0.066317 0.533504 0.099717
v 0.011489 0.650086 0.212951
v 0.017885 0.524570 0.205597
v 0.285089 0.656269 0.339060
v 0.401100 0.533312 0.382006
v 0.597490 0.569058 -0.043891
v 0.481479 0.692016 -0.086836
v 0.167076 0.549254 -0.076077
v 0.230780 0.560770 -0.212917
v 0.160736 0.674691 -0.068473
v 0.224440 0.686206 -0.205313
v 0.212311 0.927240 -0.190675
v 0.148607 0.915724 -0.053835
v 0.218651 0.801803 -0.198280
v 0.154947 0.790288 -0.061440
v 0.283062 0.928839 -0.158064
v 0.399073 0.805881 -0.115119
v 0.202682 0.770135 0.310778
v 0.086671 0.893093 0.267832
v -0.033431 0.764798 0.201947
v -0.039771 0.890235 0.209551
v 0.015056 0.773653 0.096318
v 0.008716 0.899089 0.103923
v 0.171541 0.916243 -0.043264
v 0.202388 0.791360 -0.039573
v 0.120555 0.776037 0.144945
v 0.089708 0.900920 0.141254
vt 0.4193 0.4482
vt 0.3747 0.3921
vt 0.4140 0.3791
vt 0.4497 0.4253
vt 0.4118 0.2332
vt 0.4541 0.2889
vt 0.4059 0.2770
vt 0.3870 0.2519
vt 0.3742 0.3922
vt 0.3539 0.3657
vt 0.4730 0.3143
vt 0.3669 0.2251
vt 0.3917 0.2063
vt 0.3555 0.2885
vt 0.3870 0.2519
vt 0.3668 0.2249
vt 0.3290 0.2535
vt 0.4642 0.2381
vt 0.4865 0.2426
vt 0.4730 0.3143
vt 0.4549 0.2894
vt 0.4384 0.2129
vt 0.4611 0.2426
vt 0.3622 0.3095
vt 0.4776 0.3715
vt 0.4350 0.4046
vt 0.4142 0.3787
vt 0.4577 0.3454
vt 0.5351 0.2521
vt 0.5278 0.2924
vt 0.5049 0.2931
vt 0.5131 0.2481
vt 0.4864 0.2432
vt 0.5131 0.2479
vt 0.5049 0.2933
vt 0.4972 0.3448
vt 0.4721 0.3643
vt 0.4476 0.1359
vt 0.4601 0.1469
vt 0.4441 0.1677
vt 0.4266 0.1630
vt 0.3388 0.0312
vt 0.3635 0.0499
vt 0.3446 0.0750
vt 0.2965 0.0868
vt 0.3768 0.1900
vt 0.2768 0.1128
vt 0.3966 0.1637
vt 0.3588 0.0043
vt 0.3837 0.0229
vt 0.3951 0.0864
vt 0.4215 0.0515
vt 0.3635 0.0499
vt 0.4474 0.1359
vt 0.4263 0.1632
vt 0.3968 0.1637
vt 0.4291 0.1217
vt 0.2894 0.0405
vt 0.3121 0.0108
vt 0.3883 0.1075
vt 0.2729 0.1694
vt 0.2935 0.1429
vt 0.3361 0.1764
vt 0.3156 0.2026
vt 0.3718 0.1946
vt 0.3577 0.2229
vt 0.3161 0.2023
vt 0.3358 0.1767
vt 0.4289 0.1219
vt 0.3969 0.1633
vt 0.3924 0.1317
vt 0.4108 0.1078
vt 0.2784 0.1623
vt 0.2533 0.1428
vt 0.9422 0.0664
vt 0.9935 0.0663
vt 0.9935 0.3815
vt 0.9422 0.3816
vt 0.9105 0.0342
vt 0.9395 0.0065
vt 0.9707 0.0389
vt 0.9422 0.0664
vt 0.8436 0.4184
vt 0.8785 0.3816
vt 0.9106 0.4118
vt 0.8754 0.4485
vt 0.8783 0.0666
vt 0.8275 0.3816
vt 0.8275 0.0664
vt 0.9105 0.0342
vt 0.8783 0.0666
vt 0.8491 0.0387
vt 0.8810 0.0059
vt 0.9778 0.4184
vt 0.9461 0.4487
vt 0.2988 0.5836
vt 0.2859 0.5668
vt 0.3266 0.5533
vt 0.3308 0.5590
vt 0.3240 0.4079
vt 0.3662 0.4637
vt 0.3181 0.4518
vt 0.2992 0.4268
vt 0.2660 0.5406
vt 0.3859 0.4897
vt 0.2791 0.3999
vt 0.3039 0.3811
vt 0.3241 0.4079
vt 0.2676 0.4633
vt 0.2992 0.4268
vt 0.2790 0.3997
vt 0.2412 0.4284
vt 0.2066 0.5190
vt 0.2335 0.4982
vt 0.2195 0.5356
vt 0.3238 0.4082
vt 0.3506 0.3877
vt 0.3733 0.4174
vt 0.2744 0.4843
vt 0.3898 0.5463
vt 0.3471 0.5794
vt 0.3692 0.5197
vt 0.2927 0.4525
vt 0.2969 0.4579
vt 0.2658 0.4732
vt 0.4094 0.5196
vt 0.3842 0.5392
vt 0.7958 0.4118
vt 0.7639 0.3818
vt 0.7639 0.0665
vt 0.7958 0.0342
vt 0.9105 0.0342
vt 0.6337 0.1764
vt 0.6744 0.1900
vt 0.5745 0.1128
vt 0.5911 0.1429
vt 0.5509 0.1428
vt 0.5761 0.1623
vt 0.7265 0.1219
vt 0.7085 0.1078
vt 0.6900 0.1317
vt 0.6945 0.1633
vt 0.6694 0.1946
vt 0.6335 0.1767
vt 0.6138 0.2023
vt 0.6554 0.2229
vt 0.5706 0.1694
vt 0.6132 0.2026
vt 0.5941 0.0868
vt 0.6943 0.1637
vt 0.6859 0.1075
vt 0.6422 0.0750
vt 0.6364 0.0312
vt 0.6097 0.0108
vt 0.5870 0.0405
vt 0.7437 0.1344
vt 0.7268 0.1217
vt 0.6944 0.1637
vt 0.7226 0.1618
vt 0.6927 0.0864
vt 0.6611 0.0499
vt 0.6813 0.0229
vt 0.7191 0.0515
vt 0.6611 0.0499
vt 0.6565 0.0043
vt 0.7439 0.1345
vt 0.7229 0.1616
vt 0.7417 0.1677
vt 0.7578 0.1469
vt 0.6291 0.3981
vt 0.6719 0.3643
vt 0.6885 0.3343
vt 0.5891 0.4116
vt 0.6869 0.3838
vt 0.7121 0.3643
vt 0.7013 0.2627
vt 0.6884 0.3338
vt 0.7198 0.3127
vt 0.7280 0.2673
vt 0.7500 0.2715
vt 0.7279 0.2675
vt 0.7197 0.3126
vt 0.7426 0.3119
vt 0.6924 0.3909
vt 0.6498 0.4240
vt 0.6693 0.3086
vt 0.6196 0.2953
vt 0.5759 0.3278
vt 0.5687 0.3852
vt 0.6760 0.2620
vt 0.6533 0.2323
vt 0.6266 0.2527
vt 0.6791 0.2576
vt 0.6693 0.3086
vt 0.6881 0.3343
vt 0.7014 0.2621
vt 0.5703 0.3079
vt 0.5439 0.2730
vt 0.5817 0.2443
vt 0.6019 0.2714
vt 0.6019 0.2714
vt 0.6065 0.2258
vt 0.5818 0.2445
vt 0.6341 0.4676
vt 0.6646 0.4447
vt 0.6288 0.3985
vt 0.5895 0.4115
vt 0.5348 0.5836
vt 0.5028 0.5590
vt 0.5070 0.5533
vt 0.5478 0.5668
vt 0.5096 0.4080
vt 0.5344 0.4267
vt 0.5156 0.4518
vt 0.4674 0.4637
vt 0.4478 0.4897
vt 0.5676 0.5406
vt 0.5296 0.3809
vt 0.5545 0.3997
vt 0.5660 0.4633
vt 0.5925 0.4284
vt 0.5344 0.4267
vt 0.6270 0.5190
vt 0.6142 0.5356
vt 0.6002 0.4982
vt 0.4603 0.4174
vt 0.4830 0.3877
vt 0.5593 0.4844
vt 0.4439 0.5463
vt 0.4645 0.5197
vt 0.4865 0.5794
vt 0.5409 0.4525
vt 0.5678 0.4731
vt 0.5592 0.4843
vt 0.5368 0.4579
vt 0.5678 0.4732
vt 0.4494 0.5392
vt 0.4242 0.5196
vn -0.0504 0.9969 0.0604
vn 0.0504 -0.9969 -0.0606
vn 0.0504 -0.9969 -0.0605
vn -0.6904 0.6755 -0.2589
vn 0.9083 0.0214 0.4177
vn 0.4160 0.0760 -0.9062
vn -0.4167 -0.0738 0.9061
vn 0.0504 -0.9969 -0.0604
vn 0.8930 -0.1900 0.4079
vn -0.4160 -0.0760 0.9062
vn -0.6463 -0.6770 -0.3520
vn 0.9080 0.0205 0.4185
vn 0.8755 0.2130 0.4337
vn 0.9057 0.0201 0.4234
vn -0.6128 -0.7138 -0.3390
vn -0.6608 0.7105 -0.2418
vn -0.9102 -0.0209 -0.4137
vn 0.6819 -0.6845 0.2577
vn 0.5860 0.7387 0.3330
vn -0.0475 0.9971 0.0603
vn -0.0481 0.9970 0.0603
vn -0.0492 0.9970 0.0604
vn 0.4204 0.0792 -0.9039
vn -0.9056 0.1728 -0.3873
vn -0.9080 -0.0205 -0.4185
vn 0.7121 -0.6463 0.2741
vn -0.8824 -0.2301 -0.4104
vn 0.0505 -0.9969 -0.0606
vn -0.4158 -0.0750 0.9064
vn -0.9082 -0.0212 -0.4180
vn 0.6196 0.7051 0.3449
vn 0.0506 -0.9969 -0.0607
usemtl Corpo
s 1
f 1/1/1 5/2/1 13/3/1 2/4/1
f 9/5/2 7/6/3 15/7/3 11/8/2
f 5/9/4 6/10/4 7/6/4 8/11/4
f 11/8/5 12/12/5 10/13/5 9/5/5
f 15/14/6 16/15/6 12/16/6 11/17/6
f 1/18/6 3/19/6 6/20/6 5/21/6
f 7/6/7 9/5/7 10/22/7 8/23/7
f 7/6/3 6/10/8 14/24/8 15/7/3
f 15/25/9 14/26/9 13/27/9 16/28/9
f 2/29/10 13/30/10 14/31/10 4/32/10
f 3/33/8 4/34/8 14/35/8 6/20/8
f 8/11/1 10/36/1 12/37/1 16/28/1
f 13/27/1 5/9/1 8/11/1 16/28/1
f 17/38/8 18/39/8 29/40/8 21/41/8
f 25/42/1 27/43/1 31/44/1 23/45/1
f 21/46/11 24/47/11 23/45/11 22/48/11
f 27/43/12 25/42/12 26/49/12 28/50/12
f 31/51/6 27/52/6 28/50/6 32/53/6
f 17/54/6 21/55/6 22/56/6 19/57/6
f 23/45/10 24/58/10 26/59/10 25/42/10
f 23/45/1 31/44/1 30/60/1 22/48/1
f 31/61/13 32/62/13 29/63/13 30/64/13
f 18/65/10 20/66/10 30/67/10 29/68/10
f 19/69/1 22/70/1 30/71/1 20/72/1
f 24/47/8 32/62/8 28/73/8 26/74/8
f 29/63/8 32/62/8 24/47/8 21/46/8
f 37/75/14 38/76/14 39/77/14 40/78/14
f 34/79/15 42/80/15 41/81/15 33/82/15
f 35/83/16 36/84/16 43/85/16 44/86/16
f 33/87/17 36/84/17 35/88/17 34/89/17
f 38/90/18 37/91/18 41/92/18 42/93/18
f 39/94/19 44/95/19 43/85/19 40/78/19
f 45/96/20 49/97/21 57/98/22 46/99/20
f 53/100/8 51/101/8 59/102/8 55/103/8
f 49/97/4 50/104/4 51/101/4 52/105/4
f 55/103/12 56/106/12 54/107/12 53/108/12
f 59/109/6 60/110/6 56/111/6 55/112/6
f 45/113/23 47/114/23 50/104/23 49/115/23
f 51/101/10 53/116/10 54/117/10 52/118/10
f 51/101/8 50/104/8 58/119/8 59/102/8
f 59/120/9 58/121/9 57/98/9 60/122/9
f 46/123/10 57/124/10 58/119/10 48/125/10
f 47/114/8 48/125/8 58/119/8 50/104/8
f 52/105/1 54/126/1 56/127/1 60/122/1
f 57/98/22 49/97/21 52/105/1 60/122/1
f 35/88/6 44/128/6 39/129/6 38/130/6 42/131/6 34/89/6
f 33/87/10 41/132/10 37/75/10 40/78/10 43/85/10 36/84/10
f 64/133/8 72/134/8 69/135/8 61/136/8
f 69/135/8 67/137/8 65/138/8 61/136/8
f 74/139/1 73/140/1 63/141/1 71/142/1
f 75/143/10 64/144/10 63/145/10 73/146/10
f 62/147/24 63/148/24 64/133/24 61/136/24
f 70/149/1 71/150/1 63/151/1 62/152/1
f 70/149/10 68/153/10 67/154/10 69/155/10
f 76/156/6 74/157/6 71/158/6 72/159/6
f 62/160/6 61/161/6 65/162/6 66/163/6
f 66/164/25 65/162/25 67/165/25 68/153/25
f 72/134/26 71/150/26 70/149/26 69/135/26
f 68/153/1 70/149/1 62/152/1 66/164/1
f 76/166/8 72/167/8 64/168/8 75/169/8
f 80/170/1 77/171/1 85/172/1 88/173/1
f 85/172/1 77/171/1 81/174/1 83/175/1
f 90/176/8 87/177/8 79/178/8 89/179/8
f 91/180/10 89/181/10 79/182/10 80/183/10
f 78/184/27 77/171/27 80/170/27 79/185/27
f 86/186/28 78/187/28 79/188/8 87/189/8
f 86/186/29 85/190/29 83/191/29 84/192/29
f 92/193/6 88/194/6 87/195/6 90/196/6
f 78/197/6 82/198/6 81/199/6 77/200/6
f 82/201/30 84/192/30 83/202/30 81/203/30
f 88/173/31 85/172/31 86/186/31 87/189/31
f 84/192/32 82/201/32 78/187/28 86/186/28
f 92/204/1 91/205/1 80/206/1 88/207/1
f 93/208/1 94/209/1 105/210/1 97/211/1
f 101/212/8 103/213/8 107/214/8 99/215/8
f 97/211/31 100/216/31 99/215/31 98/217/31
f 103/213/25 101/212/25 102/218/25 104/219/25
f 107/220/6 103/221/6 104/219/6 108/222/6
f 93/223/6 97/224/6 98/217/6 95/225/6
f 99/215/10 100/226/10 102/227/10 101/212/10
f 99/215/8 107/214/8 106/228/8 98/217/8
f 107/229/27 108/230/27 105/210/27 106/231/27
f 94/232/10 96/233/10 106/234/10 105/235/10
f 95/225/8 98/217/8 106/228/8 96/236/8
f 100/216/1 108/230/1 104/237/1 102/238/1
f 105/210/1 108/230/1 100/216/1 97/211/1
