# Blender v2.78 (sub 0) OBJ File: 'Esqueleto.blend'
# www.blender.org
mtllib Espada.mtl
o Espada01_Cube.002
v -0.863169 2.501594 1.101991
v -0.900447 2.526651 0.778596
v -0.858709 2.618764 1.110556
v -0.895987 2.643822 0.787160
v -1.094015 2.508398 1.129128
v -1.131293 2.533455 0.805733
v -1.089555 2.625568 1.137693
v -1.126833 2.650626 0.814297
v -0.844589 4.101179 1.260759
v -0.877823 4.311212 0.925394
v -0.982356 4.105247 1.276856
v -1.015589 4.315279 0.941491
v -0.914590 2.663652 1.025706
v -0.930433 2.674302 0.888262
v -1.052345 2.667712 1.041899
v -1.068188 2.678362 0.904456
v -0.939891 2.680659 0.806211
v -1.037458 2.657706 1.171050
v -0.899691 2.653638 1.154952
v -1.077657 2.684727 0.822308
v -0.864689 4.114689 1.086388
v -1.002456 4.118757 1.102485
v -0.857723 4.297701 1.099765
v -0.995489 4.301769 1.115862
v -1.009907 3.381476 1.223953
v -0.872140 3.377409 1.207855
v -0.876800 3.255008 1.198909
v -1.014566 3.259076 1.215006
v -1.024150 3.391050 1.100390
v -0.886384 3.386982 1.084293
v -0.891043 3.264582 1.075346
v -1.028809 3.268650 1.091444
v -0.899604 3.739010 0.883570
v -1.037370 3.743077 0.899667
v -1.041181 3.642971 0.892350
v -0.903415 3.638903 0.876252
v -0.888724 3.731696 0.977960
v -1.026490 3.735764 0.994058
v -1.030301 3.635657 0.986741
v -0.892534 3.631590 0.970643
v -0.892262 2.848812 1.169218
v -1.030028 2.852879 1.185315
v -1.025908 2.961112 1.193227
v -0.888142 2.957045 1.177129
v -0.905803 2.857913 1.051749
v -1.043569 2.861980 1.067846
v -1.039449 2.970213 1.075757
v -0.901683 2.966146 1.059660
v -0.941872 1.946937 0.973318
v -0.957715 1.957586 0.835875
v -1.079627 1.950997 0.989512
v -1.095470 1.961646 0.852068
v -0.914590 2.663652 1.025706
v -0.930433 2.674302 0.888262
v -1.052345 2.667712 1.041899
v -1.068188 2.678362 0.904456
v -1.059419 3.163849 0.857329
v -0.921653 3.159781 0.841232
vt 0.3321 0.1182
vt 0.3829 0.1182
vt 0.3827 0.1488
vt 0.3318 0.1489
vt 0.2032 0.1487
vt 0.1522 0.1489
vt 0.1531 0.1016
vt 0.2030 0.1016
vt 0.2025 0.6796
vt 0.1516 0.6794
vt 0.1516 0.4145
vt 0.2025 0.4146
vt 0.2031 0.2218
vt 0.1511 0.2221
vt 0.3316 0.5003
vt 0.3316 0.3248
vt 0.3318 0.1489
vt 0.3827 0.1488
vt 0.3824 0.3245
vt 0.3824 0.5000
vt 0.3325 0.9331
vt 0.3324 0.8732
vt 0.3802 0.8732
vt 0.3800 0.9331
vt 0.3318 0.8100
vt 0.3314 0.7469
vt 0.3818 0.7469
vt 0.3810 0.8100
vt 0.3314 0.7470
vt 0.2671 0.6799
vt 0.2671 0.7470
vt 0.3810 0.8100
vt 0.3318 0.8100
vt 0.3324 0.8732
vt 0.3802 0.8732
vt 0.0870 0.6799
vt 0.0226 0.7471
vt 0.0870 0.7470
vt 0.3314 0.5376
vt 0.3821 0.5379
vt 0.6277 0.3814
vt 0.4987 0.3814
vt 0.4988 0.2929
vt 0.6277 0.2929
vt 0.6976 0.3816
vt 0.6976 0.5105
vt 0.6091 0.5106
vt 0.6091 0.3816
vt 0.3460 0.5011
vt 0.3460 0.5372
vt 0.2963 0.5373
vt 0.2963 0.5009
vt 0.6089 0.5106
vt 0.4987 0.5105
vt 0.4987 0.3816
vt 0.6089 0.3816
vt 0.2027 0.3695
vt 0.1520 0.3693
vt 0.1520 0.2612
vt 0.2027 0.2611
vt 0.4985 0.5105
vt 0.3883 0.5106
vt 0.3884 0.3816
vt 0.4986 0.3816
vt 0.1975 0.2601
vt 0.2460 0.2601
vt 0.2460 0.2221
vt 0.1975 0.2221
vt 0.3314 0.3252
vt 0.2461 0.2608
vt 0.2028 0.2608
vt 0.2028 0.3700
vt 0.2484 0.3700
vt 0.2461 0.2212
vt 0.3314 0.1497
vt 0.2028 0.2212
vt 0.2003 0.3709
vt 0.2482 0.3704
vt 0.2482 0.4140
vt 0.2003 0.4131
vt 0.6203 0.6397
vt 0.5044 0.6397
vt 0.5044 0.5107
vt 0.6203 0.5108
vt 0.3883 0.6397
vt 0.3883 0.5108
vt 0.5043 0.5107
vt 0.5043 0.6397
vt 0.3011 0.1497
vt 0.2504 0.1497
vt 0.2028 0.1497
vt 0.2484 0.4148
vt 0.3314 0.5007
vt 0.2028 0.6799
vt 0.2966 0.5374
vt 0.2966 0.5007
vt 0.2028 0.4148
vt 0.3314 0.5374
vt 0.0226 0.5376
vt 0.1516 0.6794
vt 0.0577 0.5373
vt 0.1516 0.4145
vt 0.1058 0.4140
vt 0.0225 0.5003
vt 0.0577 0.5009
vt 0.1058 0.3704
vt 0.0225 0.3248
vt 0.1520 0.2612
vt 0.1079 0.2608
vt 0.1520 0.3693
vt 0.1079 0.2212
vt 0.0225 0.1493
vt 0.1511 0.2221
vt 0.1513 0.1493
vt 0.1036 0.1497
vt 0.0529 0.1497
vt 0.7895 0.2889
vt 0.7895 0.4432
vt 0.7333 0.4432
vt 0.7333 0.2889
vt 0.7895 0.0783
vt 0.7895 0.2330
vt 0.8997 0.2330
vt 0.8997 0.0783
vt 0.9548 0.2889
vt 0.9548 0.4432
vt 0.8997 0.4432
vt 0.8997 0.2889
vt 0.7895 0.2889
vt 0.7895 0.4432
vt 0.8997 0.4432
vt 0.8997 0.2889
vt 0.8997 0.4432
vt 0.7895 0.4432
vt 0.7894 0.4988
vt 0.8997 0.4988
vt 0.7895 0.2889
vt 0.8997 0.2889
vt 0.8553 0.5159
vt 0.9215 0.5159
vt 0.9215 0.8444
vt 0.8553 0.8444
vt 0.9865 0.8444
vt 0.9865 0.9111
vt 0.9215 0.9111
vt 0.9215 0.8444
vt 0.8553 0.5159
vt 0.7896 0.5159
vt 0.7896 0.8444
vt 0.8553 0.8444
vt 0.9865 0.5159
vt 0.9865 0.8444
vt 0.7256 0.8444
vt 0.7896 0.8444
vt 0.7896 0.5159
vt 0.7256 0.5159
vn -0.0379 -0.9966 -0.0729
vn -0.0379 -0.9966 -0.0728
vn 0.1135 -0.0767 0.9906
vn -0.1135 0.0767 -0.9906
vn 0.0379 0.9966 0.0728
vn -0.9927 0.0293 0.1167
vn 0.9927 -0.0293 -0.1167
vn 0.1142 -0.0767 0.9905
vn -0.1142 0.0767 -0.9905
usemtl Espada01
s off
f 20/1/1 17/2/1 14/3/1 16/4/1
f 19/5/2 18/6/2 15/7/2 13/8/2
f 9/9/3 11/10/3 25/11/3 26/12/3
f 41/13/3 42/14/3 18/6/3 19/5/3
f 36/15/4 58/16/4 17/17/4 20/18/4 57/19/4 35/20/4
f 9/21/5 21/22/5 22/23/5 11/24/5
f 23/25/5 10/26/5 12/27/5 24/28/5
f 12/29/6 22/30/6 24/31/6
f 22/32/3 21/33/3 23/34/3 24/35/3
f 21/36/7 10/37/7 23/38/7
f 10/26/4 33/39/4 34/40/4 12/27/4
f 39/41/5 40/42/5 36/43/5 35/44/5
f 34/45/2 33/46/2 37/47/2 38/48/2
f 39/49/4 38/50/4 37/51/4 40/52/4
f 41/53/5 45/54/5 46/55/5 42/56/5
f 27/57/3 28/58/3 43/59/3 44/60/3
f 48/61/2 44/62/2 43/63/2 47/64/2
f 48/65/3 47/66/3 46/67/3 45/68/3
f 57/69/6 47/70/6 43/71/6 28/72/6 32/73/6
f 46/74/6 47/70/6 57/69/6 20/75/6 42/76/6
f 32/77/3 31/78/3 30/79/3 29/80/3
f 27/81/5 31/82/5 32/83/5 28/84/5
f 26/85/2 25/86/2 29/87/2 30/88/2
f 16/89/6 15/90/6 18/91/6 42/76/6 20/75/6
f 32/73/6 29/92/6 35/93/6 57/69/6
f 11/94/6 38/95/6 39/96/6 35/93/6 29/92/6 25/97/6
f 22/30/6 34/98/6 38/95/6 11/94/6
f 12/29/6 34/98/6 22/30/6
f 10/37/7 21/36/7 33/99/7
f 9/100/7 37/101/7 33/99/7 21/36/7
f 26/102/7 30/103/7 36/104/7 40/105/7 37/101/7 9/100/7
f 31/106/7 58/107/7 36/104/7 30/103/7
f 44/108/7 48/109/7 58/107/7 31/106/7 27/110/7
f 58/107/7 48/109/7 45/111/7 17/112/7
f 17/112/7 45/111/7 41/113/7 19/114/7 13/115/7 14/116/7
usemtl EspadaCabo01
f 1/117/7 2/118/7 4/119/7 3/120/7
f 3/121/5 4/122/5 8/123/5 7/124/5
f 7/125/6 8/126/6 6/127/6 5/128/6
f 5/129/2 6/130/2 2/131/2 1/132/2
f 3/133/8 7/134/8 5/135/8 1/136/8
f 8/123/9 4/122/9 2/137/9 6/138/9
f 55/139/6 56/140/6 52/141/6 51/142/6
f 51/143/2 52/144/2 50/145/2 49/146/2
f 53/147/8 55/148/8 51/149/8 49/150/8
f 56/140/9 54/151/9 50/152/9 52/141/9
f 49/153/7 50/154/7 54/155/7 53/156/7
