# Blender v2.78 (sub 0) OBJ File: 'Esqueleto.blend'
# www.blender.org
mtllib Pe.mtl
o Corpo.001_Cube.003
v 0.214851 0.388222 -0.275691
v -0.238573 0.388222 -0.275691
v -0.011861 0.765254 -0.197745
v 0.214852 0.388222 0.246303
v -0.238573 0.388222 0.246303
v -0.011861 0.765254 0.059205
v 0.080601 0.567258 -0.236718
v 0.080601 0.567258 0.152754
v -0.125217 0.388222 -0.275691
v -0.125217 0.388222 0.246303
v -0.104322 0.567258 -0.236718
v -0.104322 0.567258 0.152754
v 0.101496 0.388222 0.246303
v 0.101495 0.388222 -0.275691
v -0.011861 0.449675 -0.256204
v -0.011861 0.449675 0.199529
vt 0.0702 0.9352
vt 0.1287 0.8537
vt 0.1506 0.9007
vt 0.1163 0.9535
vt 0.1239 0.6868
vt 0.0970 0.6868
vt 0.0971 0.8114
vt 0.1239 0.8111
vt 0.1508 0.6916
vt 0.1508 0.8000
vt 0.1731 0.8538
vt 0.2051 0.8110
vt 0.2755 0.9212
vt 0.2325 0.9370
vt 0.2047 0.6868
vt 0.1778 0.6868
vt 0.1778 0.8111
vt 0.2051 0.8110
vt 0.1854 0.9554
vt 0.0971 0.8114
vt 0.1239 0.8111
vt 0.1508 0.8257
vt 0.1778 0.8111
vt 0.1728 0.6440
vt 0.2047 0.6868
vt 0.1778 0.6868
vt 0.1508 0.6719
vt 0.1239 0.6868
vt 0.0970 0.6868
vt 0.1289 0.6440
vt 0.1508 0.5969
vt 0.0280 0.9195
vn -0.9061 0.4231 0.0000
vn -0.0000 -1.0000 0.0000
vn -0.4766 -0.8791 0.0000
vn 0.8001 0.5999 -0.0000
vn 0.9061 0.4231 -0.0000
vn 0.0000 0.4363 0.8998
vn -0.0000 0.1980 -0.9802
vn 0.4766 -0.8791 -0.0000
vn -0.8001 0.5999 0.0000
usemtl Corpo
s 1
f 11/1/1 12/2/1 6/3/1 3/4/1
f 14/5/2 1/6/2 4/7/2 13/8/2
f 15/9/3 14/5/3 13/8/3 16/10/3
f 8/11/4 4/12/4 1/13/4 7/14/4
f 2/15/2 9/16/2 10/17/2 5/18/2
f 6/3/5 8/11/5 7/14/5 3/19/5
f 12/2/6 5/20/6 10/21/6 16/22/6 13/23/6 4/12/6 8/11/6 6/3/6
f 7/24/7 1/25/7 14/26/7 15/27/7 9/28/7 2/29/7 11/30/7 3/31/7
f 15/9/8 16/10/8 10/17/8 9/16/8
f 2/32/9 5/20/9 12/2/9 11/1/9
