# Blender v2.78 (sub 0) OBJ File: 'Coadjuvantes.blend'
# www.blender.org
mtllib Cabeca.mtl
o Corpo.001_Cube.001
v -0.714360 3.139260 -0.155646
v -0.714338 3.137892 0.778384
v -0.059721 2.478802 -0.156629
v 0.594915 3.139263 -0.155677
v -0.059724 3.799721 -0.154694
v -0.059700 2.477434 0.777402
v 0.594936 3.137894 0.778354
v -0.059702 3.798353 0.779337
v -0.519630 3.172919 0.710227
v -0.311585 3.380965 0.710527
v -0.519628 3.172819 0.778430
v -0.311584 3.380864 0.778730
v -0.311584 2.964875 0.709918
v -0.103540 3.172919 0.710218
v -0.311583 2.964775 0.778121
v -0.103538 3.172820 0.778421
v -0.005912 3.172920 0.710216
v 0.202132 3.380965 0.710516
v -0.005911 3.172821 0.778418
v 0.202134 3.380865 0.778718
v 0.202133 2.964875 0.709906
v 0.410177 3.172920 0.710207
v 0.202135 2.964775 0.778109
v 0.410179 3.172821 0.778409
vt 0.3966 0.4727
vt 0.2681 0.3437
vt 0.1402 0.4723
vt 0.2687 0.6008
vt 0.1402 0.4719
vt 0.0112 0.6014
vt 0.1397 0.7298
vt 0.2683 0.6014
vt 0.2680 0.8604
vt 0.1385 0.9901
vt 0.0088 0.8604
vt 0.1385 0.7305
vt 0.2683 0.6004
vt 0.3969 0.4725
vt 0.5263 0.6012
vt 0.3975 0.7300
vt 0.2677 0.8604
vt 0.3974 0.7302
vt 0.5279 0.8603
vt 0.3978 0.9904
vt 0.1847 0.7372
vt 0.2171 0.7705
vt 0.2171 0.7782
vt 0.1770 0.7372
vt 0.2170 0.6961
vt 0.2591 0.7372
vt 0.2514 0.7372
vt 0.2170 0.7038
vt 0.2861 0.7372
vt 0.3188 0.7705
vt 0.3188 0.7782
vt 0.2784 0.7372
vt 0.3185 0.6961
vt 0.3604 0.7371
vt 0.3528 0.7372
vt 0.3186 0.7038
vt 0.2785 0.7372
vt 0.3605 0.7372
vt 0.3189 0.7705
vt 0.1393 0.7298
vn -0.0000 0.0015 -1.0000
vn -0.7102 -0.7040 -0.0010
vn -0.7102 0.7040 0.0010
vn 0.7102 -0.7040 -0.0010
vn 0.7102 0.7040 0.0010
vn 0.7071 -0.7071 -0.0011
vn -0.7071 0.7071 0.0011
vn 0.0000 -0.0015 1.0000
vn 0.7071 0.7071 0.0010
vn -0.7071 -0.7071 -0.0010
usemtl Abejide
s off
f 1/1/1 5/2/1 4/3/1 3/4/1
f 6/5/2 2/6/2 1/7/2 3/8/2
f 8/9/3 5/10/3 1/11/3 2/12/3
f 6/13/4 3/14/4 4/15/4 7/16/4
f 8/17/5 7/18/5 4/19/5 5/20/5
f 9/21/6 10/22/6 12/23/6 11/24/6
f 15/25/7 16/26/7 14/27/7 13/28/7
f 13/28/8 14/27/8 10/22/8 9/21/8
f 11/24/9 15/25/9 13/28/9 9/21/9
f 16/26/10 12/23/10 10/22/10 14/27/10
f 17/29/6 18/30/6 20/31/6 19/32/6
f 23/33/7 24/34/7 22/35/7 21/36/7
f 21/36/8 22/35/8 18/30/8 17/29/8
f 19/37/9 23/33/9 21/36/9 17/29/9
f 24/38/10 20/31/10 18/39/10 22/35/10
f 7/16/8 8/9/8 19/32/8 20/31/8 24/38/8
f 2/40/8 11/24/8 12/23/8 16/26/8 8/9/8
f 2/40/8 6/13/8 16/26/8 15/25/8 11/24/8
f 6/13/8 7/16/8 24/38/8 23/33/8 19/32/8
f 8/9/8 16/26/8 6/13/8 19/32/8
