# Blender v2.78 (sub 0) OBJ File: 'Coadjuvantes.blend'
# www.blender.org
mtllib CabecaEmpalada.mtl
o Corpo_Cube.006
v -0.917423 0.294956 -0.328831
v -0.246358 0.294956 -0.328831
v -0.581890 0.692006 0.079862
v -0.917423 -0.138694 0.310528
v -0.246358 -0.138693 0.310528
v -0.581890 0.478543 0.394584
v -0.631211 1.617951 -0.557595
v -0.631211 1.754589 -0.014088
v -0.631211 2.459326 -1.217883
v -0.631211 3.236911 -0.700411
v -0.717690 1.489696 -0.473340
v -1.067822 1.837652 -0.434361
v -0.717690 1.434572 0.018744
v -1.067822 1.782528 0.057723
v -1.067822 1.141740 -0.512319
v -1.417954 1.489696 -0.473340
v -1.067822 1.086616 -0.020235
v -1.417954 1.434572 0.018744
v 0.023426 0.977422 -0.396566
v 0.678063 1.617951 -0.557596
v 0.023426 2.258480 -0.718625
v 0.023426 1.114060 0.146941
v 0.678063 1.754589 -0.014089
v 0.023426 2.395118 -0.175118
v 0.023426 2.093418 -0.668047
v 0.678063 2.459326 -1.217883
v 0.023426 2.825234 -1.767719
v 0.023426 2.871004 -0.150576
v 0.678063 3.236911 -0.700412
v 0.023426 3.602819 -1.250248
v -0.436501 3.199481 -0.767275
v -0.228456 3.314742 -0.940473
v -0.436501 3.256260 -0.729489
v -0.228456 3.371521 -0.902687
v -0.228456 3.084220 -0.594076
v -0.020411 3.199481 -0.767274
v -0.228456 3.141000 -0.556290
v -0.020411 3.256260 -0.729488
v 0.077216 3.199481 -0.767274
v 0.285261 3.314742 -0.940472
v 0.077216 3.256260 -0.729489
v 0.285261 3.371521 -0.902686
v 0.285261 3.084220 -0.594076
v 0.493306 3.199481 -0.767274
v 0.285261 3.141000 -0.556290
v 0.493306 3.256261 -0.729488
v -0.365011 3.361897 -0.829838
v -0.365011 3.395411 -0.880199
v -0.365011 3.259456 -0.898010
v -0.365011 3.292971 -0.948372
v -0.101855 3.361897 -0.829838
v -0.101855 3.395411 -0.880199
v -0.101855 3.259456 -0.898010
v -0.101855 3.292971 -0.948372
v -0.233433 3.259456 -0.898010
v -0.233433 3.292971 -0.948372
v -0.233433 3.361897 -0.829838
v -0.233433 3.395411 -0.880199
v -0.167644 3.292971 -0.948372
v -0.167644 3.361897 -0.829838
v -0.167644 3.259456 -0.898010
v -0.167644 3.395411 -0.880199
v -0.299222 3.259456 -0.898010
v -0.299222 3.395411 -0.880199
v -0.299222 3.292971 -0.948372
v -0.299222 3.361897 -0.829838
v 0.214496 3.361897 -0.829838
v 0.214496 3.292971 -0.948372
v 0.214496 3.395411 -0.880199
v 0.214496 3.259457 -0.898010
v 0.346073 3.395411 -0.880199
v 0.346073 3.259457 -0.898010
v 0.346073 3.361897 -0.829838
v 0.346073 3.292971 -0.948372
v 0.280284 3.395411 -0.880199
v 0.280284 3.361897 -0.829838
v 0.280284 3.292971 -0.948372
v 0.280284 3.259457 -0.898010
v 0.411862 3.292971 -0.948372
v 0.411862 3.259457 -0.898010
v 0.411862 3.395411 -0.880199
v 0.411862 3.361897 -0.829838
v 0.148707 3.292971 -0.948372
v 0.148707 3.259456 -0.898010
v 0.148707 3.395411 -0.880199
v 0.148707 3.361897 -0.829838
v 1.357217 1.222727 -0.491923
v 1.007084 1.570683 -0.452944
v 1.357217 1.167603 0.000161
v 1.007084 1.515559 0.039140
v 1.007084 0.874771 -0.530902
v 0.656952 1.222727 -0.491923
v 1.007084 0.819647 -0.038818
v 0.656952 1.167603 0.000161
v 0.179336 0.300658 -0.337236
v 0.850402 0.300658 -0.337237
v 0.514869 0.697708 0.071456
v 0.179337 -0.132992 0.302122
v 0.850402 -0.132992 0.302122
v 0.514869 0.484245 0.386178
vt 0.6672 0.6861
vt 0.7554 0.7048
vt 0.7554 0.7650
vt 0.6672 0.8089
vt 0.5606 0.8088
vt 0.5606 0.6861
vt 0.6139 0.8976
vt 0.6139 0.5970
vt 0.4723 0.7650
vt 0.4723 0.7048
vt 0.4963 0.1420
vt 0.6352 0.0022
vt 0.7733 0.1420
vt 0.6350 0.2815
vt 0.6352 0.2815
vt 0.4960 0.4211
vt 0.4358 0.3599
vt 0.5750 0.2209
vt 0.5746 0.6217
vt 0.6355 0.5610
vt 0.4960 0.4211
vt 0.4351 0.4823
vt 0.3966 0.4727
vt 0.2681 0.3437
vt 0.1402 0.4723
vt 0.2687 0.6008
vt 0.1402 0.4719
vt 0.0112 0.6014
vt 0.1397 0.7298
vt 0.2683 0.6014
vt 0.2680 0.8604
vt 0.1385 0.9901
vt 0.0088 0.8604
vt 0.1385 0.7305
vt 0.2460 0.2666
vt 0.1889 0.3236
vt 0.1318 0.2669
vt 0.1892 0.2093
vt 0.0742 0.2097
vt 0.1318 0.1520
vt 0.0741 0.0942
vt 0.0165 0.1520
vt 0.0742 0.2097
vt 0.1318 0.1520
vt 0.1893 0.0945
vt 0.1316 0.0368
vt 0.0741 0.0942
vt 0.1893 0.0946
vt 0.2465 0.1519
vt 0.0745 0.3242
vt 0.0173 0.2670
vt 0.7743 0.4212
vt 0.6355 0.5610
vt 0.6958 0.2201
vt 0.6352 0.2815
vt 0.7743 0.4207
vt 0.8349 0.3591
vt 0.6969 0.6228
vt 0.8359 0.4825
vt 0.2683 0.6004
vt 0.3969 0.4725
vt 0.5263 0.6012
vt 0.3975 0.7300
vt 0.2677 0.8604
vt 0.3974 0.7302
vt 0.5279 0.8603
vt 0.3978 0.9904
vt 0.1847 0.7372
vt 0.2171 0.7705
vt 0.2171 0.7782
vt 0.1770 0.7372
vt 0.2170 0.6961
vt 0.2591 0.7372
vt 0.2514 0.7372
vt 0.2170 0.7038
vt 0.2861 0.7372
vt 0.3188 0.7705
vt 0.3188 0.7782
vt 0.2784 0.7372
vt 0.3185 0.6961
vt 0.3604 0.7371
vt 0.3528 0.7372
vt 0.3186 0.7038
vt 0.2785 0.7372
vt 0.3605 0.7372
vt 0.3189 0.7705
vt 0.1393 0.7298
vt 0.7852 0.6175
vt 0.7852 0.6385
vt 0.7424 0.6385
vt 0.7424 0.6175
vt 0.9801 0.6175
vt 0.9801 0.6385
vt 0.9374 0.6385
vt 0.9374 0.6175
vt 0.8232 0.6175
vt 0.8232 0.6385
vt 0.8993 0.5748
vt 0.9374 0.5748
vt 0.8993 0.6175
vt 0.8232 0.6812
vt 0.7852 0.6812
vt 0.8993 0.6812
vt 0.8613 0.6812
vt 0.8613 0.6385
vt 0.8993 0.6385
vt 0.8232 0.5748
vt 0.8613 0.5748
vt 0.8613 0.6175
vt 0.9374 0.6812
vt 0.7852 0.5748
vt 0.7981 0.1484
vt 0.8362 0.1484
vt 0.8362 0.1911
vt 0.7981 0.1911
vt 0.8742 0.1484
vt 0.9123 0.1484
vt 0.9123 0.1911
vt 0.8742 0.1911
vt 0.9503 0.2548
vt 0.9123 0.2548
vt 0.9123 0.2121
vt 0.9503 0.2121
vt 0.9503 0.1911
vt 0.8742 0.2121
vt 0.8742 0.2548
vt 0.8362 0.2548
vt 0.7981 0.2548
vt 0.7981 0.2121
vt 0.8362 0.2121
vt 0.9503 0.1484
vt 0.9931 0.1911
vt 0.9931 0.2121
vt 0.7554 0.2121
vt 0.7554 0.1911
vt 0.4880 0.2678
vt 0.4309 0.3249
vt 0.3737 0.2681
vt 0.4312 0.2105
vt 0.3162 0.2109
vt 0.3738 0.1532
vt 0.3161 0.0955
vt 0.2585 0.1533
vt 0.3162 0.2109
vt 0.3738 0.1532
vt 0.4313 0.0958
vt 0.3736 0.0381
vt 0.3161 0.0955
vt 0.4313 0.0958
vt 0.4885 0.1532
vt 0.3165 0.3254
vt 0.2593 0.2682
vt 0.9036 0.7840
vt 0.9918 0.8027
vt 0.9918 0.8628
vt 0.9036 0.9067
vt 0.7970 0.9066
vt 0.7970 0.7840
vt 0.8502 0.9955
vt 0.8502 0.6948
vt 0.7087 0.8628
vt 0.7087 0.8027
vn 0.8570 0.4265 0.2893
vn 0.0000 -0.8276 -0.5613
vn 0.0000 -0.1349 0.9909
vn -0.0000 0.7172 -0.6968
vn -0.8570 0.4265 0.2893
vn -0.0000 -0.2438 -0.9698
vn -0.7102 -0.6827 0.1716
vn -0.7102 0.6827 -0.1716
vn -0.0000 -0.8325 -0.5540
vn -0.7102 -0.3900 0.5861
vn -0.7102 0.3900 -0.5861
vn 0.7071 0.7027 0.0787
vn 0.0000 -0.1113 0.9938
vn -0.7071 -0.7027 -0.0787
vn -0.0000 0.1113 -0.9938
vn 0.7071 -0.7027 -0.0787
vn -0.7071 0.7027 0.0787
vn 0.0000 0.2438 0.9698
vn 0.7102 -0.6827 0.1716
vn 0.7102 0.6827 -0.1716
vn 0.7102 -0.3900 0.5861
vn 0.7102 0.3900 -0.5861
vn 0.7071 -0.3918 0.5887
vn -0.7071 0.3918 -0.5887
vn -0.0000 0.8325 0.5540
vn 0.7071 0.3918 -0.5887
vn -0.7071 -0.3918 0.5887
vn -0.7071 0.3917 -0.5887
vn -0.7071 -0.3917 0.5887
vn -1.0000 0.0000 0.0000
vn 1.0000 0.0000 0.0000
vn 0.0000 -0.5540 0.8325
vn -0.0000 0.5540 -0.8325
usemtl Abejide
s off
f 2/1/1 3/2/1 6/3/1 5/4/1
f 2/1/2 5/4/2 4/5/2 1/6/2
f 5/4/3 6/7/3 4/5/3
f 3/8/4 2/1/4 1/6/4
f 6/9/5 3/10/5 1/6/5 4/5/5
f 7/11/6 21/12/6 20/13/6 19/14/6
f 22/15/7 8/16/7 7/17/7 19/18/7
f 24/19/8 21/20/8 7/21/8 8/22/8
f 9/23/9 27/24/9 26/25/9 25/26/9
f 28/27/10 10/28/10 9/29/10 25/30/10
f 30/31/11 27/32/11 9/33/11 10/34/11
f 11/35/12 12/36/12 14/37/12 13/38/12
f 13/38/13 14/37/13 18/39/13 17/40/13
f 17/41/14 18/42/14 16/43/14 15/44/14
f 15/44/15 16/45/15 12/46/15 11/47/15
f 13/38/16 17/40/16 15/48/16 11/49/16
f 18/39/17 14/37/17 12/50/17 16/51/17
f 8/16/18 22/15/18 23/52/18 24/53/18
f 22/54/19 19/55/19 20/56/19 23/57/19
f 24/58/20 23/59/20 20/56/20 21/20/20
f 28/60/21 25/61/21 26/62/21 29/63/21
f 30/64/22 29/65/22 26/66/22 27/67/22
f 31/68/23 32/69/23 34/70/23 33/71/23
f 37/72/24 38/73/24 36/74/24 35/75/24
f 35/75/25 36/74/25 32/69/25 31/68/25
f 33/71/26 37/72/26 35/75/26 31/68/26
f 38/73/27 34/70/27 32/69/27 36/74/27
f 39/76/23 40/77/23 42/78/23 41/79/23
f 45/80/28 46/81/28 44/82/28 43/83/28
f 43/83/25 44/82/25 40/77/25 39/76/25
f 41/84/26 45/80/26 43/83/26 39/76/26
f 46/85/29 42/78/29 40/86/29 44/82/29
f 29/63/25 30/31/25 41/79/25 42/78/25 46/85/25
f 10/87/25 33/71/25 34/70/25 38/73/25 30/31/25
f 10/87/25 28/60/25 38/73/25 37/72/25 33/71/25
f 28/60/25 29/63/25 46/85/25 45/80/25 41/79/25
f 30/31/25 38/73/25 28/60/25 41/79/25
f 47/88/30 48/89/30 50/90/30 49/91/30
f 53/92/31 54/93/31 52/94/31 51/95/31
f 66/96/25 64/97/25 48/89/25 47/88/25
f 61/98/32 53/99/32 51/95/32 60/100/32
f 65/101/33 50/102/33 48/89/33 64/97/33
f 59/103/33 56/104/33 58/105/33 62/106/33
f 63/107/32 55/108/32 57/109/32 66/96/32
f 60/100/25 62/106/25 58/105/25 57/109/25
f 51/95/25 52/94/25 62/106/25 60/100/25
f 54/110/33 59/103/33 62/106/33 52/94/33
f 55/108/32 61/98/32 60/100/32 57/109/32
f 49/111/32 63/107/32 66/96/32 47/88/32
f 56/104/33 65/101/33 64/97/33 58/105/33
f 57/109/25 58/105/25 64/97/25 66/96/25
f 84/112/32 70/113/32 67/114/32 86/115/32
f 78/116/32 72/117/32 73/118/32 76/119/32
f 79/120/33 74/121/33 71/122/33 81/123/33
f 82/124/25 81/123/25 71/122/25 73/118/25
f 73/118/25 71/122/25 75/125/25 76/119/25
f 70/113/32 78/116/32 76/119/32 67/114/32
f 74/121/33 77/126/33 75/125/33 71/122/33
f 68/127/33 83/128/33 85/129/33 69/130/33
f 72/117/32 80/131/32 82/124/32 73/118/32
f 67/114/25 69/130/25 85/129/25 86/115/25
f 80/132/31 79/133/31 81/123/31 82/124/31
f 86/115/30 85/129/30 83/134/30 84/135/30
f 77/126/33 68/127/33 69/130/33 75/125/33
f 76/119/25 75/125/25 69/130/25 67/114/25
f 87/136/12 88/137/12 90/138/12 89/139/12
f 89/139/13 90/138/13 94/140/13 93/141/13
f 93/142/14 94/143/14 92/144/14 91/145/14
f 91/145/15 92/146/15 88/147/15 87/148/15
f 89/139/16 93/141/16 91/149/16 87/150/16
f 94/140/17 90/138/17 88/151/17 92/152/17
f 96/153/1 97/154/1 100/155/1 99/156/1
f 96/153/2 99/156/2 98/157/2 95/158/2
f 99/156/3 100/159/3 98/157/3
f 97/160/4 96/153/4 95/158/4
f 100/161/5 97/162/5 95/158/5 98/157/5
