# Blender v2.78 (sub 0) OBJ File: 'Coadjuvantes.blend'
# www.blender.org
mtllib Coadjuvantes01.mtl
o Corpo_Cube.006
v -0.784395 0.190580 0.371154
v -0.153799 0.419862 0.381542
v -0.508552 0.438767 -0.176180
v -1.048622 0.915794 0.404011
v -0.418026 1.145077 0.414399
v -0.638617 0.795752 -0.160006
v -0.635390 0.187517 -1.099802
v -0.636068 0.746916 -1.066000
v -0.828649 0.966401 -2.423739
v -0.142988 1.600176 -2.398988
v 0.161175 0.584010 -0.828978
v -0.331683 0.593132 -0.782149
v 0.113487 0.504689 -1.315414
v -0.379371 0.513811 -1.268584
v 0.162634 1.072692 -0.908809
v -0.330224 1.081814 -0.861979
v 0.114946 0.993371 -1.395244
v -0.377912 1.002493 -1.348415
v 0.023844 0.148754 -0.445077
v 0.673851 0.189650 -1.108836
v 0.014617 0.228414 -1.763561
v 0.023166 0.708152 -0.411275
v 0.673173 0.749048 -1.075034
v 0.013939 0.787812 -1.729759
v -0.320825 0.396270 -1.892870
v 0.049986 0.025086 -2.660646
v -0.457838 0.595217 -3.191515
v 0.364836 1.030046 -1.868119
v 0.735647 0.658862 -2.635894
v 0.227823 1.228993 -3.166764
v -0.066011 1.419170 -2.470365
v 0.052025 1.300928 -2.712547
v -0.015944 1.465448 -2.468558
v 0.102092 1.347206 -2.710738
v 0.095184 1.238260 -2.303473
v 0.213221 1.120018 -2.545654
v 0.145252 1.284538 -2.301665
v 0.263288 1.166296 -2.543846
v 0.278737 1.049828 -2.563319
v 0.396774 0.931587 -2.805500
v 0.328804 1.096106 -2.561512
v 0.446841 0.977865 -2.803692
v 0.439933 0.868918 -2.396427
v 0.557970 0.750677 -2.638608
v 0.490000 0.915196 -2.394619
v 0.608037 0.796955 -2.636801
v 0.041042 1.457395 -2.620306
v 0.034767 1.466506 -2.679779
v -0.049288 1.373900 -2.623567
v -0.055563 1.383011 -2.683041
v 0.217642 1.268196 -2.667923
v 0.211367 1.277308 -2.727396
v 0.127312 1.184702 -2.671183
v 0.121037 1.193813 -2.730656
v 0.039012 1.279301 -2.647375
v 0.032737 1.288413 -2.706849
v 0.129342 1.362796 -2.644114
v 0.123067 1.371907 -2.703588
v 0.076887 1.241113 -2.718753
v 0.173492 1.315496 -2.656018
v 0.083162 1.232002 -2.659279
v 0.167217 1.324608 -2.715492
v -0.005138 1.326601 -2.635471
v 0.078917 1.419207 -2.691684
v -0.011413 1.335712 -2.694945
v 0.085192 1.410095 -2.632210
v 0.429940 1.040753 -2.725165
v 0.333335 0.966370 -2.787900
v 0.423666 1.049865 -2.784638
v 0.339611 0.957259 -2.728426
v 0.511966 0.955266 -2.808446
v 0.427911 0.862660 -2.752233
v 0.518240 0.946154 -2.748973
v 0.421635 0.871771 -2.811707
v 0.467816 1.002565 -2.796542
v 0.474090 0.993454 -2.737069
v 0.377485 0.919070 -2.799804
v 0.383761 0.909959 -2.740330
v 0.465786 0.824472 -2.823611
v 0.472061 0.815361 -2.764138
v 0.556116 0.907966 -2.820351
v 0.562391 0.898855 -2.760877
v 0.289185 1.013669 -2.775995
v 0.295460 1.004558 -2.716521
v 0.379516 1.097164 -2.772734
v 0.385790 1.088053 -2.713261
v 1.688022 0.752761 -1.904553
v 1.651440 0.678892 -1.416300
v 1.642856 0.265723 -1.981621
v 1.606274 0.191854 -1.493369
v 1.196283 0.802990 -1.933797
v 1.159701 0.729121 -1.445545
v 1.151117 0.315952 -2.010866
v 1.114535 0.242083 -1.522614
v 0.127039 0.256064 0.079578
v 0.787909 0.199169 -0.022119
v 0.477506 0.770061 -0.144566
v 0.261190 0.627522 0.743546
v 0.922061 0.570628 0.641849
v 0.543542 0.952910 0.182271
vt 0.6672 0.6861
vt 0.7554 0.7048
vt 0.7554 0.7650
vt 0.6672 0.8089
vt 0.5606 0.8088
vt 0.5606 0.6861
vt 0.6139 0.8976
vt 0.6139 0.5970
vt 0.4723 0.7650
vt 0.4723 0.7048
vt 0.4963 0.1420
vt 0.6352 0.0022
vt 0.7733 0.1420
vt 0.6350 0.2815
vt 0.6352 0.2815
vt 0.4960 0.4211
vt 0.4358 0.3599
vt 0.5750 0.2209
vt 0.5746 0.6217
vt 0.6355 0.5610
vt 0.4960 0.4211
vt 0.4351 0.4823
vt 0.3966 0.4727
vt 0.2681 0.3437
vt 0.1402 0.4723
vt 0.2687 0.6008
vt 0.1402 0.4719
vt 0.0112 0.6014
vt 0.1397 0.7298
vt 0.2683 0.6014
vt 0.2680 0.8604
vt 0.1385 0.9901
vt 0.0088 0.8604
vt 0.1385 0.7305
vt 0.2460 0.2666
vt 0.1889 0.3236
vt 0.1318 0.2669
vt 0.1892 0.2093
vt 0.0742 0.2097
vt 0.1318 0.1520
vt 0.0741 0.0942
vt 0.0165 0.1520
vt 0.0742 0.2097
vt 0.1318 0.1520
vt 0.1893 0.0945
vt 0.1316 0.0368
vt 0.0741 0.0942
vt 0.1893 0.0946
vt 0.2465 0.1519
vt 0.0745 0.3242
vt 0.0173 0.2670
vt 0.7743 0.4212
vt 0.6355 0.5610
vt 0.6958 0.2201
vt 0.6352 0.2815
vt 0.7743 0.4207
vt 0.8349 0.3591
vt 0.6969 0.6228
vt 0.8359 0.4825
vt 0.2683 0.6004
vt 0.3969 0.4725
vt 0.5263 0.6012
vt 0.3975 0.7300
vt 0.2677 0.8604
vt 0.3974 0.7302
vt 0.5279 0.8603
vt 0.3978 0.9904
vt 0.1847 0.7372
vt 0.2171 0.7705
vt 0.2171 0.7782
vt 0.1770 0.7372
vt 0.2170 0.6961
vt 0.2591 0.7372
vt 0.2514 0.7372
vt 0.2170 0.7038
vt 0.2861 0.7372
vt 0.3188 0.7705
vt 0.3188 0.7782
vt 0.2784 0.7372
vt 0.3185 0.6961
vt 0.3604 0.7371
vt 0.3528 0.7372
vt 0.3186 0.7038
vt 0.2785 0.7372
vt 0.3605 0.7372
vt 0.3189 0.7705
vt 0.1393 0.7298
vt 0.7852 0.6175
vt 0.7852 0.6385
vt 0.7424 0.6385
vt 0.7424 0.6175
vt 0.9801 0.6175
vt 0.9801 0.6385
vt 0.9374 0.6385
vt 0.9374 0.6175
vt 0.8232 0.6175
vt 0.8232 0.6385
vt 0.8993 0.5748
vt 0.9374 0.5748
vt 0.8993 0.6175
vt 0.8232 0.6812
vt 0.7852 0.6812
vt 0.8993 0.6812
vt 0.8613 0.6812
vt 0.8613 0.6385
vt 0.8993 0.6385
vt 0.8232 0.5748
vt 0.8613 0.5748
vt 0.8613 0.6175
vt 0.9374 0.6812
vt 0.7852 0.5748
vt 0.7981 0.1484
vt 0.8362 0.1484
vt 0.8362 0.1911
vt 0.7981 0.1911
vt 0.8742 0.1484
vt 0.9123 0.1484
vt 0.9123 0.1911
vt 0.8742 0.1911
vt 0.9503 0.2548
vt 0.9123 0.2548
vt 0.9123 0.2121
vt 0.9503 0.2121
vt 0.9503 0.1911
vt 0.8742 0.2121
vt 0.8742 0.2548
vt 0.8362 0.2548
vt 0.7981 0.2548
vt 0.7981 0.2121
vt 0.8362 0.2121
vt 0.9503 0.1484
vt 0.9931 0.1911
vt 0.9931 0.2121
vt 0.7554 0.2121
vt 0.7554 0.1911
vt 0.4880 0.2678
vt 0.4309 0.3249
vt 0.3737 0.2681
vt 0.4312 0.2105
vt 0.3162 0.2109
vt 0.3738 0.1532
vt 0.3161 0.0955
vt 0.2585 0.1533
vt 0.3162 0.2109
vt 0.3738 0.1532
vt 0.4313 0.0958
vt 0.3736 0.0381
vt 0.3161 0.0955
vt 0.4313 0.0958
vt 0.4885 0.1532
vt 0.3165 0.3254
vt 0.2593 0.2682
vt 0.9036 0.7840
vt 0.9918 0.8027
vt 0.9918 0.8628
vt 0.9036 0.9067
vt 0.7970 0.9066
vt 0.7970 0.7840
vt 0.8502 0.9955
vt 0.8502 0.6948
vt 0.7087 0.8628
vt 0.7087 0.8027
vn 0.8053 0.3161 -0.5015
vn 0.0000 -0.0453 0.9990
vn -0.3064 0.8610 -0.4060
vn 0.3349 -0.9101 -0.2439
vn -0.8053 -0.2695 -0.5281
vn 0.0012 -0.9982 -0.0603
vn -0.7053 -0.0436 0.7076
vn -0.7151 0.0413 -0.6978
vn -0.7341 -0.6785 -0.0265
vn -0.4036 0.4046 0.8206
vn -0.5496 0.6167 -0.5636
vn -0.0029 -0.9869 0.1612
vn -0.0963 -0.1602 -0.9824
vn 0.0029 0.9869 -0.1612
vn 0.0963 0.1602 0.9824
vn 0.9953 -0.0184 -0.0946
vn -0.9953 0.0184 0.0946
vn -0.0012 0.9982 0.0603
vn 0.7151 -0.0413 0.6978
vn 0.7053 0.0436 -0.7076
vn 0.5496 -0.6167 0.5636
vn 0.4036 -0.4046 -0.8206
vn 0.5479 -0.6149 0.5672
vn -0.5479 0.6149 -0.5672
vn 0.7341 0.6785 0.0265
vn 0.4012 -0.4019 -0.8231
vn -0.4012 0.4019 0.8231
vn -0.6711 0.7190 0.1809
vn 0.6711 -0.7190 -0.1809
vn 0.1037 -0.1506 0.9831
vn -0.1037 0.1506 -0.9831
vn 0.9931 -0.1014 0.0591
vn -0.0912 -0.9836 -0.1556
vn -0.9931 0.1014 -0.0591
vn 0.0912 0.9836 0.1556
vn 0.0739 0.1492 -0.9860
vn -0.0739 -0.1492 0.9860
vn 0.8440 0.3771 -0.3815
vn 0.0000 -0.8727 0.4882
vn 0.1555 0.8186 0.5528
vn -0.1701 -0.2942 -0.9405
vn -0.8440 0.5224 -0.1217
usemtl Abejide
s off
f 2/1/1 3/2/1 6/3/1 5/4/1
f 2/1/2 5/4/2 4/5/2 1/6/2
f 5/4/3 6/7/3 4/5/3
f 3/8/4 2/1/4 1/6/4
f 6/9/5 3/10/5 1/6/5 4/5/5
f 7/11/6 21/12/6 20/13/6 19/14/6
f 22/15/7 8/16/7 7/17/7 19/18/7
f 24/19/8 21/20/8 7/21/8 8/22/8
f 9/23/9 27/24/9 26/25/9 25/26/9
f 28/27/10 10/28/10 9/29/10 25/30/10
f 30/31/11 27/32/11 9/33/11 10/34/11
f 11/35/12 12/36/12 14/37/12 13/38/12
f 13/38/13 14/37/13 18/39/13 17/40/13
f 17/41/14 18/42/14 16/43/14 15/44/14
f 15/44/15 16/45/15 12/46/15 11/47/15
f 13/38/16 17/40/16 15/48/16 11/49/16
f 18/39/17 14/37/17 12/50/17 16/51/17
f 8/16/18 22/15/18 23/52/18 24/53/18
f 22/54/19 19/55/19 20/56/19 23/57/19
f 24/58/20 23/59/20 20/56/20 21/20/20
f 28/60/21 25/61/21 26/62/21 29/63/21
f 30/64/22 29/65/22 26/66/22 27/67/22
f 31/68/23 32/69/23 34/70/23 33/71/23
f 37/72/24 38/73/24 36/74/24 35/75/24
f 35/75/25 36/74/25 32/69/25 31/68/25
f 33/71/26 37/72/26 35/75/26 31/68/26
f 38/73/27 34/70/27 32/69/27 36/74/27
f 39/76/23 40/77/23 42/78/23 41/79/23
f 45/80/24 46/81/24 44/82/24 43/83/24
f 43/83/25 44/82/25 40/77/25 39/76/25
f 41/84/26 45/80/26 43/83/26 39/76/26
f 46/85/27 42/78/27 40/86/27 44/82/27
f 29/63/25 30/31/25 41/79/25 42/78/25 46/85/25
f 10/87/25 33/71/25 34/70/25 38/73/25 30/31/25
f 10/87/25 28/60/25 38/73/25 37/72/25 33/71/25
f 28/60/25 29/63/25 46/85/25 45/80/25 41/79/25
f 30/31/25 38/73/25 28/60/25 41/79/25
f 47/88/28 48/89/28 50/90/28 49/91/28
f 53/92/29 54/93/29 52/94/29 51/95/29
f 66/96/25 64/97/25 48/89/25 47/88/25
f 61/98/30 53/99/30 51/95/30 60/100/30
f 65/101/31 50/102/31 48/89/31 64/97/31
f 59/103/31 56/104/31 58/105/31 62/106/31
f 63/107/30 55/108/30 57/109/30 66/96/30
f 60/100/25 62/106/25 58/105/25 57/109/25
f 51/95/25 52/94/25 62/106/25 60/100/25
f 54/110/31 59/103/31 62/106/31 52/94/31
f 55/108/30 61/98/30 60/100/30 57/109/30
f 49/111/30 63/107/30 66/96/30 47/88/30
f 56/104/31 65/101/31 64/97/31 58/105/31
f 57/109/25 58/105/25 64/97/25 66/96/25
f 84/112/30 70/113/30 67/114/30 86/115/30
f 78/116/30 72/117/30 73/118/30 76/119/30
f 79/120/31 74/121/31 71/122/31 81/123/31
f 82/124/25 81/123/25 71/122/25 73/118/25
f 73/118/25 71/122/25 75/125/25 76/119/25
f 70/113/30 78/116/30 76/119/30 67/114/30
f 74/121/31 77/126/31 75/125/31 71/122/31
f 68/127/31 83/128/31 85/129/31 69/130/31
f 72/117/30 80/131/30 82/124/30 73/118/30
f 67/114/25 69/130/25 85/129/25 86/115/25
f 80/132/29 79/133/29 81/123/29 82/124/29
f 86/115/28 85/129/28 83/134/28 84/135/28
f 77/126/31 68/127/31 69/130/31 75/125/31
f 76/119/25 75/125/25 69/130/25 67/114/25
f 87/136/32 88/137/32 90/138/32 89/139/32
f 89/139/33 90/138/33 94/140/33 93/141/33
f 93/142/34 94/143/34 92/144/34 91/145/34
f 91/145/35 92/146/35 88/147/35 87/148/35
f 89/139/36 93/141/36 91/149/36 87/150/36
f 94/140/37 90/138/37 88/151/37 92/152/37
f 96/153/38 97/154/38 100/155/38 99/156/38
f 96/153/39 99/156/39 98/157/39 95/158/39
f 99/156/40 100/159/40 98/157/40
f 97/160/41 96/153/41 95/158/41
f 100/161/42 97/162/42 95/158/42 98/157/42
