ply
format ascii 1.0
comment Created by Blender 2.78 (sub 0) - www.blender.org, source file: 'Carcereiro.blend'
element vertex 90
property float x
property float y
property float z
property float nx
property float ny
property float nz
property float s
property float t
element face 28
property list uchar uint vertex_indices
end_header
-0.544649 1.034881 2.300973 0.567227 -0.108856 -0.816335 0.272100 0.174600
-0.589125 1.201959 2.247790 0.567227 -0.108856 -0.816335 0.349500 0.174700
-0.442772 1.270384 2.340358 0.567227 -0.108856 -0.816335 0.349500 0.254400
-0.398296 1.103306 2.393542 0.567227 -0.108856 -0.816335 0.272000 0.254300
-1.212439 0.627835 1.023863 -0.245871 0.923638 -0.294007 0.969900 0.228000
-0.901453 1.061649 2.126642 -0.245871 0.923638 -0.294007 0.969700 0.752500
-0.775164 1.081451 2.083238 -0.245871 0.923638 -0.294007 0.912000 0.752500
-1.086149 0.647637 0.980459 -0.245871 0.923638 -0.294007 0.912100 0.228000
-0.865428 0.926316 2.169721 0.245871 -0.923638 0.294007 0.791400 0.752400
-1.176414 0.492502 1.066941 0.245871 -0.923638 0.294007 0.791600 0.228000
-1.050124 0.512304 1.023538 0.245871 -0.923638 0.294007 0.849400 0.228000
-0.739138 0.946118 2.126317 0.245871 -0.923638 0.294007 0.849200 0.752500
-1.086149 0.647637 0.980459 0.935477 0.146682 -0.321508 0.912100 0.228000
-0.775164 1.081451 2.083238 0.935477 0.146682 -0.321508 0.912000 0.752500
-0.739138 0.946118 2.126317 0.935477 0.146682 -0.321508 0.849200 0.752500
-1.050124 0.512304 1.023538 0.935477 0.146682 -0.321508 0.849400 0.228000
-1.176414 0.492502 1.066941 -0.935477 -0.146681 0.321508 0.791600 0.228000
-0.865428 0.926316 2.169721 -0.935477 -0.146681 0.321508 0.791400 0.752400
-0.901453 1.061649 2.126642 -0.935477 -0.146681 0.321508 0.728700 0.752400
-1.212439 0.627835 1.023863 -0.935477 -0.146681 0.321508 0.728900 0.227900
-0.589125 1.201959 2.247790 -0.245871 0.923638 -0.294007 0.444100 0.300200
-1.528076 1.063969 2.599511 -0.245871 0.923638 -0.294007 0.484500 0.731600
-0.807461 1.249583 2.579990 -0.245871 0.923638 -0.294007 0.349300 0.443000
-0.670133 1.247468 2.458502 -0.245871 0.923638 -0.294007 0.372500 0.368000
-0.762985 1.082505 2.633174 0.366982 0.369441 0.853720 0.271900 0.442900
-0.807461 1.249583 2.579990 0.366982 0.369441 0.853720 0.349300 0.443000
-1.359497 1.186813 2.844453 0.366982 0.369441 0.853720 0.349100 0.706400
-1.315022 1.019735 2.897637 0.366982 0.369441 0.853720 0.271600 0.706300
-1.528076 1.063969 2.599511 -0.815467 -0.033134 0.577854 0.629100 0.806500
-1.483601 0.896891 2.652694 -0.815467 -0.033134 0.577854 0.705700 0.795300
-1.315022 1.019735 2.897637 -0.815467 -0.033134 0.577854 0.725500 0.931600
-1.359497 1.186813 2.844453 -0.815467 -0.033134 0.577854 0.648900 0.942700
-0.770276 1.091696 2.052886 -0.245871 0.923638 -0.294007 0.561200 0.338800
-1.501733 0.971689 2.287577 -0.245871 0.923638 -0.294007 0.609000 0.668200
-0.770276 1.091696 2.052886 -0.233423 -0.350812 -0.906888 0.561200 0.338800
-0.725800 0.924618 2.106070 -0.233423 -0.350812 -0.906888 0.637800 0.327700
-1.457257 0.804611 2.340761 -0.233423 -0.350812 -0.906888 0.685600 0.657100
-1.501733 0.971689 2.287577 -0.233423 -0.350812 -0.906888 0.609000 0.668200
-1.483601 0.896891 2.652694 0.245871 -0.923638 0.294007 0.136200 0.731300
-0.762985 1.082505 2.633174 0.245871 -0.923638 0.294007 0.271900 0.442900
-1.315022 1.019735 2.897637 0.245871 -0.923638 0.294007 0.271600 0.706300
-0.589125 1.201959 2.247790 -0.245871 0.923638 -0.294008 0.444100 0.300200
-0.670133 1.247468 2.458502 -0.245871 0.923638 -0.294008 0.372500 0.368000
-0.442772 1.270384 2.340358 -0.245871 0.923638 -0.294008 0.376500 0.258000
-0.544649 1.034881 2.300973 0.245871 -0.923638 0.294007 0.177400 0.300000
-0.625657 1.080389 2.511685 0.245871 -0.923638 0.294007 0.248800 0.367900
-0.762985 1.082505 2.633174 0.615347 0.383091 0.688904 0.271900 0.442900
-0.625657 1.080389 2.511685 0.615347 0.383091 0.688904 0.271900 0.364400
-0.670133 1.247468 2.458502 0.615347 0.383091 0.688904 0.349400 0.364500
-0.807461 1.249583 2.579990 0.615347 0.383091 0.688904 0.349300 0.443000
-0.725800 0.924618 2.106070 0.245871 -0.923638 0.294007 0.060200 0.338400
-1.457257 0.804611 2.340761 0.245871 -0.923638 0.294007 0.011800 0.667700
-1.359497 1.186813 2.844453 -0.245871 0.923638 -0.294007 0.349100 0.706400
-1.501733 0.971689 2.287577 -0.965936 -0.258732 -0.005034 0.609000 0.668200
-1.457257 0.804611 2.340761 -0.965936 -0.258732 -0.005034 0.685600 0.657100
-1.483601 0.896891 2.652694 -0.965936 -0.258732 -0.005034 0.705700 0.795300
-1.528076 1.063969 2.599511 -0.965936 -0.258732 -0.005034 0.629100 0.806500
-0.589125 1.201959 2.247790 0.737558 -0.018535 -0.675029 0.349500 0.174700
-0.544649 1.034881 2.300973 0.737558 -0.018535 -0.675029 0.272100 0.174600
-0.725800 0.924618 2.106070 0.737558 -0.018535 -0.675029 0.272200 0.051300
-0.770276 1.091696 2.052886 0.737558 -0.018535 -0.675029 0.349700 0.051400
-0.398296 1.103306 2.393542 0.245871 -0.923638 0.294007 0.245000 0.257800
-0.625657 1.080389 2.511685 0.397999 0.372768 0.838236 0.271900 0.364400
-0.398296 1.103306 2.393542 0.397999 0.372768 0.838236 0.272000 0.254300
-0.442772 1.270384 2.340358 0.397999 0.372768 0.838236 0.349500 0.254400
-0.670133 1.247468 2.458502 0.397999 0.372768 0.838236 0.349400 0.364500
-1.176414 0.492502 1.066941 -0.253832 -0.354086 -0.900107 0.969900 0.165300
-1.212439 0.627835 1.023863 -0.253832 -0.354086 -0.900107 0.969900 0.228000
-1.086149 0.647637 0.980459 -0.253832 -0.354086 -0.900107 0.912100 0.228000
-1.050124 0.512304 1.023538 -0.253832 -0.354086 -0.900107 0.912200 0.165300
-0.588464 1.232450 2.399617 0.883981 0.089232 -0.458928 0.451200 0.752400
-0.529766 1.287470 2.523379 0.883981 0.089232 -0.458928 0.450600 0.815600
-0.493472 1.151129 2.566778 0.883981 0.089232 -0.458928 0.387400 0.815000
-0.552170 1.096108 2.443017 0.883981 0.089232 -0.458928 0.388000 0.751800
-0.552170 1.096108 2.443017 0.245871 -0.923638 0.294007 0.388000 0.751800
-0.493472 1.151129 2.566778 0.245871 -0.923638 0.294007 0.387400 0.815000
-0.623959 1.137957 2.634522 0.245871 -0.923638 0.294007 0.324200 0.814400
-0.682657 1.082937 2.510761 0.245871 -0.923638 0.294007 0.324800 0.751200
-0.682657 1.082937 2.510761 -0.883981 -0.089231 0.458928 0.324800 0.751200
-0.623959 1.137957 2.634522 -0.883981 -0.089231 0.458928 0.324200 0.814400
-0.660253 1.274298 2.591122 -0.883981 -0.089231 0.458928 0.261000 0.813800
-0.718951 1.219278 2.467361 -0.883981 -0.089231 0.458928 0.261600 0.750600
-0.718951 1.219278 2.467361 -0.245871 0.923638 -0.294007 0.261600 0.750600
-0.660253 1.274298 2.591122 -0.245871 0.923638 -0.294007 0.261000 0.813800
-0.529766 1.287470 2.523379 -0.245871 0.923638 -0.294007 0.197800 0.813200
-0.588464 1.232450 2.399617 -0.245871 0.923638 -0.294007 0.198400 0.750000
-0.623959 1.137957 2.634522 0.397650 0.372733 0.838418 0.260400 0.877000
-0.493472 1.151129 2.566778 0.397650 0.372733 0.838418 0.197200 0.876400
-0.529766 1.287470 2.523379 0.397650 0.372733 0.838418 0.197800 0.813200
-0.660253 1.274298 2.591122 0.397650 0.372733 0.838418 0.261000 0.813800
4 0 1 2 3
4 4 5 6 7
4 8 9 10 11
4 12 13 14 15
4 16 17 18 19
4 20 21 22 23
4 24 25 26 27
4 28 29 30 31
3 21 32 33
4 34 35 36 37
3 38 39 40
3 41 42 43
4 38 44 45 39
4 46 47 48 49
3 50 44 38
3 50 38 51
3 22 21 52
4 53 54 55 56
3 32 21 20
4 57 58 59 60
3 44 61 45
4 62 63 64 65
4 66 67 68 69
4 70 71 72 73
4 74 75 76 77
4 78 79 80 81
4 82 83 84 85
4 86 87 88 89
